# xmcd
#
# Track frame offsets:
#	150
#	9083
#	18483
#	31118
#	41670
#	53870
#	66370
#	81518
#	93298
#	105658
#	115483
#	129460
#
# Disc length: 1858 seconds
#
# Revision: 0
# Processed by: cddbd v1.5PL3 Copyright (c) Steve Scherf et al.
# Submitted via: dBpowerAMP V4.0
#
DISCID=9607400c
DTITLE=Glenda Faye - Flat Pickin' Favorites
DYEAR=1900
DGENRE=Bluegrass
TTITLE0=Porter Wagoner's Introduction - Black Mountain Rag
TTITLE1=Home Sweet Home - Wildwood Flower
TTITLE2=Down Yonder
TTITLE3=Spanish Grass
TTITLE4=Bill Cheatum
TTITLE5=Orange Blossom Special
TTITLE6=Faded Love
TTITLE7=Ozark Rag
TTITLE8=Rocky Top
TTITLE9=St Anne's Reel - Solier's Joy
TTITLE10=Beaumont Rag
TTITLE11=Unregistered bonus number
EXTD=
EXTT0=
EXTT1=
EXTT2=
EXTT3=
EXTT4=
EXTT5=
EXTT6=
EXTT7=
EXTT8=
EXTT9=
EXTT10=
EXTT11=
PLAYORDER=
